<svg width="16" height="18" viewBox="0 0 16 18" fill="none" xmlns="http://www.w3.org/2000/svg">
<path d="M8 10.9L9.9 12.8C10.1 12.9833 10.3377 13.075 10.613 13.075C10.8877 13.075 11.1167 12.9833 11.3 12.8C11.5 12.6 11.6 12.3623 11.6 12.087C11.6 11.8123 11.5 11.5833 11.3 11.4L9.4 9.5L11.3 7.6C11.5 7.4 11.6 7.16233 11.6 6.887C11.6 6.61233 11.5 6.38333 11.3 6.2C11.1167 6 10.8877 5.9 10.613 5.9C10.3377 5.9 10.1 6 9.9 6.2L8 8.1L6.1 6.2C5.91667 6 5.68767 5.9 5.413 5.9C5.13767 5.9 4.9 6 4.7 6.2C4.51667 6.38333 4.425 6.61233 4.425 6.887C4.425 7.16233 4.51667 7.4 4.7 7.6L6.6 9.5L4.7 11.4C4.51667 11.5833 4.425 11.8123 4.425 12.087C4.425 12.3623 4.51667 12.6 4.7 12.8C4.9 12.9833 5.13767 13.075 5.413 13.075C5.68767 13.075 5.91667 12.9833 6.1 12.8L8 10.9ZM3 18C2.45 18 1.97933 17.8043 1.588 17.413C1.196 17.021 1 16.55 1 16V3C0.716667 3 0.479 2.90433 0.287 2.713C0.0956668 2.521 0 2.28333 0 2C0 1.71667 0.0956668 1.479 0.287 1.287C0.479 1.09567 0.716667 1 1 1H5C5 0.716667 5.096 0.479 5.288 0.287C5.47933 0.0956666 5.71667 0 6 0H10C10.2833 0 10.521 0.0956666 10.713 0.287C10.9043 0.479 11 0.716667 11 1H15C15.2833 1 15.5207 1.09567 15.712 1.287C15.904 1.479 16 1.71667 16 2C16 2.28333 15.904 2.521 15.712 2.713C15.5207 2.90433 15.2833 3 15 3V16C15 16.55 14.8043 17.021 14.413 17.413C14.021 17.8043 13.55 18 13 18H3Z" fill="#F53F3F"/>
</svg>
