<svg width="16" height="16" viewBox="0 0 16 16" fill="none" xmlns="http://www.w3.org/2000/svg">
<path d="M5 1C5.13261 1 5.25979 1.05268 5.35355 1.14645C5.44732 1.24021 5.5 1.36739 5.5 1.5V2H7.5V1.5C7.5 1.36739 7.55268 1.24021 7.64645 1.14645C7.74021 1.05268 7.86739 1 8 1C8.13261 1 8.25979 1.05268 8.35355 1.14645C8.44732 1.24021 8.5 1.36739 8.5 1.5V2H10.5V1.5C10.5 1.36739 10.5527 1.24021 10.6464 1.14645C10.7402 1.05268 10.8674 1 11 1C11.1326 1 11.2598 1.05268 11.3536 1.14645C11.4473 1.24021 11.5 1.36739 11.5 1.5V2C11.8978 2 12.2794 2.15804 12.5607 2.43934C12.842 2.72064 13 3.10218 13 3.5V6.036C12.6415 6.09834 12.3005 6.23679 12 6.442V3.5C12 3.36739 11.9473 3.24021 11.8536 3.14645C11.7598 3.05268 11.6326 3 11.5 3H4.5C4.36739 3 4.24021 3.05268 4.14645 3.14645C4.05268 3.24021 4 3.36739 4 3.5V13.5C4 13.6326 4.05268 13.7598 4.14645 13.8536C4.24021 13.9473 4.36739 14 4.5 14H6.047V14.002C5.96171 14.3333 5.98555 14.6833 6.115 15H4.5C4.10218 15 3.72064 14.842 3.43934 14.5607C3.15804 14.2794 3 13.8978 3 13.5V3.5C3 3.10218 3.15804 2.72064 3.43934 2.43934C3.72064 2.15804 4.10218 2 4.5 2V1.5C4.5 1.36739 4.55268 1.24021 4.64645 1.14645C4.74021 1.05268 4.86739 1 5 1ZM10 8C10.107 8 10.206 8.034 10.288 8.091L9.378 9H6C5.86739 9 5.74021 8.94732 5.64645 8.85355C5.55268 8.75979 5.5 8.63261 5.5 8.5C5.5 8.36739 5.55268 8.24021 5.64645 8.14645C5.74021 8.05268 5.86739 8 6 8H10ZM6.996 11.435C6.98022 11.3146 6.92119 11.2041 6.82992 11.1241C6.73866 11.044 6.62139 10.9999 6.5 11H6C5.86739 11 5.74021 11.0527 5.64645 11.1464C5.55268 11.2402 5.5 11.3674 5.5 11.5C5.5 11.6326 5.55268 11.7598 5.64645 11.8536C5.74021 11.9473 5.86739 12 6 12H6.5C6.55333 12.0001 6.60634 11.9917 6.657 11.975C6.754 11.786 6.867 11.605 6.996 11.435ZM6 5C5.86739 5 5.74021 5.05268 5.64645 5.14645C5.55268 5.24021 5.5 5.36739 5.5 5.5C5.5 5.63261 5.55268 5.75979 5.64645 5.85355C5.74021 5.94732 5.86739 6 6 6H10C10.1326 6 10.2598 5.94732 10.3536 5.85355C10.4473 5.75979 10.5 5.63261 10.5 5.5C10.5 5.36739 10.4473 5.24021 10.3536 5.14645C10.2598 5.05268 10.1326 5 10 5H6ZM12.338 7.455C12.6307 7.16233 13.0276 6.99792 13.4415 6.99792C13.8554 6.99792 14.2523 7.16233 14.545 7.455C14.8377 7.74767 15.0021 8.14461 15.0021 8.5585C15.0021 8.97239 14.8377 9.36933 14.545 9.662L10.256 13.95C9.9002 14.3061 9.4543 14.5588 8.966 14.681L7.755 14.984C7.65276 15.0096 7.54563 15.0083 7.44405 14.9802C7.34246 14.9521 7.24989 14.8982 7.17536 14.8236C7.10083 14.7491 7.04689 14.6565 7.01878 14.555C6.99068 14.4534 6.98938 14.3462 7.015 14.244L7.319 13.034C7.441 12.545 7.693 12.099 8.049 11.744L12.338 7.455Z" fill="#F53F3F"/>
</svg>
